<mxfile host="app.diagrams.net" modified="2023-05-02T11:41:16.814Z" agent="Mozilla/5.0 (Macintosh; Intel Mac OS X 10_15_7) AppleWebKit/537.36 (KHTML, like Gecko) Chrome/111.0.0.0 Safari/537.36" version="21.1.8" etag="hzirf4WkwB3Sg0xq70nG" type="github">
  <diagram name="Page-1" id="UUnME6GT_cfDlcZUcxe2">
    <mxGraphModel>
      <root>
        <mxCell id="0" />
        <mxCell id="1" parent="0" />
      </root>
    </mxGraphModel>
  </diagram>
</mxfile>
